PathFileType	4	(X/Y/Z)	./resultDataOpenSim/trcMotMarkerGrf/sub06/qtm-04-04.trc
DataRate	CameraRate	NumFrames	NumMarkers	Units	OrigDataRate	OrigDataStartFrame	OrigNumFrames
250.000000	250.000000	10	24	m	250.000000	470	536
Frame#	Time	L.Toe.Tip			R.Toe.Tip			L.Ankle.Lat			R.Ankle.Lat			L.Ankle.Med			R.Ankle.Med			L.Heel			R.Heel			L.Knee.Lat			R.Knee.Lat			L.Knee.Med			R.Knee.Med			L.Thigh.Upper			R.Thigh.Upper			L.ASIS			R.ASIS			V.Sacral			L.Acromium			R.Acromium			C7			L.Elbow			R.Elbow			L.Wrist.Lat			R.Wrist.Lat
		X1	Y1	Z1	X2	Y2	Z2	X3	Y3	Z3	X4	Y4	Z4	X5	Y5	Z5	X6	Y6	Z6	X7	Y7	Z7	X8	Y8	Z8	X9	Y9	Z9	X10	Y10	Z10	X11	Y11	Z11	X12	Y12	Z12	X13	Y13	Z13	X14	Y14	Z14	X15	Y15	Z15	X16	Y16	Z16	X17	Y17	Z17	X18	Y18	Z18	X19	Y19	Z19	X20	Y20	Z20	X21	Y21	Z21	X22	Y22	Z22	X23	Y23	Z23	X24	Y24	Z24

470	1.876	1.6618472	0.03394501	-0.070736631	1.4608848	0.077197915	0.12445738	1.5379907	0.068512333	-0.094067993	1.3823719	0.1882021	0.12779499	1.5323645	0.079534652	-0.0062474194	1.4244611	0.18774606	0.048699844	1.4608507	0.041860521	-0.053103987	1.337352	0.20508002	0.057053597	1.6289915	0.43378273	-0.092850891	1.6560523	0.4469384	0.17945277	1.589982	0.42957826	0.022551758	1.6687365	0.43292183	0.043488418	1.5604681	0.82633413	-0.16054506	1.5191577	0.79218672	0.18266088	1.6239898	0.86995509	-0.10687198	1.6061593	0.85791707	0.1383872	1.423703	0.93057033	0.012519812	1.5320394	1.3362208	-0.18175201	1.5245335	1.3431384	0.1819476	1.449049	1.3723201	-0.0043504673	1.4909544	1.0186347	-0.22742407	1.4560139	1.0301211	0.24963664	1.6380534	0.82308453	-0.25532617	1.6149176	0.844039	0.25994562
471	1.88	1.6618442	0.033943905	-0.070749764	1.478986	0.076061994	0.1244333	1.5379886	0.068595363	-0.094058486	1.3970792	0.18467222	0.1272874	1.5324687	0.079684947	-0.0062633585	1.4394794	0.18511737	0.048190172	1.4608712	0.041994961	-0.053056512	1.3516789	0.20008438	0.056401599	1.6298693	0.43361726	-0.092831103	1.6656372	0.44949156	0.17933564	1.5907114	0.42967263	0.022551306	1.6779793	0.43618039	0.043587816	1.5655666	0.82686739	-0.1605599	1.5261633	0.79351813	0.18285352	1.629224	0.8709168	-0.10702078	1.6116434	0.85947589	0.13809772	1.4290256	0.93131876	0.012289603	1.538249	1.3377142	-0.18172154	1.5298162	1.3438381	0.18194889	1.4545468	1.3732207	-0.0044870709	1.4989919	1.0196148	-0.2282104	1.4594837	1.031316	0.24904346	1.6483977	0.82565162	-0.25489712	1.6161009	0.84370252	0.26106382
472	1.884	1.6618428	0.033940928	-0.070761389	1.496738	0.074804647	0.12438844	1.5379894	0.068685925	-0.094051642	1.4119029	0.18101603	0.12684234	1.5324606	0.079840199	-0.006261115	1.454587	0.18240448	0.047699422	1.4608977	0.042142604	-0.053005795	1.366127	0.19494888	0.055850791	1.6307012	0.433448	-0.092845785	1.6751123	0.45199975	0.17922433	1.5914785	0.4297865	0.022532398	1.6870186	0.43935207	0.043753204	1.5706283	0.82735379	-0.16057278	1.5333852	0.79475569	0.18299694	1.6344423	0.87181458	-0.10716947	1.6171923	0.86097608	0.13781621	1.4343176	0.93205213	0.012080838	1.5443923	1.3390837	-0.18166238	1.5350991	1.3444745	0.18195344	1.4600455	1.3740583	-0.004604264	1.5070096	1.0205626	-0.22898967	1.4629799	1.0324779	0.24846203	1.6588386	0.82819681	-0.25442478	1.6172372	0.84337292	0.26218368
473	1.888	1.6618437	0.033937342	-0.070772508	1.5143354	0.073439939	0.12432998	1.5379949	0.068783241	-0.094043467	1.4268515	0.17724136	0.1264482	1.5324123	0.079997263	-0.0062457916	1.4697469	0.17961113	0.047264302	1.4609276	0.04230325	-0.052943289	1.380717	0.18973386	0.055417518	1.6315059	0.43327837	-0.092891335	1.6844247	0.45445905	0.17908277	1.5922871	0.42991054	0.022493821	1.695879	0.44244366	0.043982066	1.5755844	0.82778802	-0.16059829	1.5406811	0.79591617	0.1831274	1.6396491	0.87264996	-0.10732088	1.6227925	0.86241459	0.13753303	1.4395779	0.93276215	0.01190506	1.5504799	1.3403198	-0.18157226	1.5403837	1.3450454	0.18196392	1.4655458	1.3748265	-0.0047032939	1.5150098	1.0214799	-0.2297616	1.4664032	1.033572	0.24788189	1.6693612	0.83071871	-0.253908	1.6182984	0.84305059	0.26330449
474	1.892	1.6618495	0.033933506	-0.070783976	1.5320403	0.072009577	0.12427988	1.5380067	0.068885228	-0.094031079	1.4419436	0.17336001	0.12609915	1.5323798	0.080151571	-0.0062296607	1.4849194	0.17673445	0.046938488	1.4609597	0.042471701	-0.052867058	1.3953318	0.18449385	0.055118763	1.6322919	0.4331131	-0.092965191	1.6935472	0.45685551	0.17887686	1.5931605	0.43003542	0.022432617	1.7045422	0.44543688	0.044269157	1.5803336	0.82815402	-0.1606496	1.5478927	0.79704015	0.18328838	1.6448398	0.87342351	-0.10747913	1.6284128	0.86378899	0.13723909	1.4448948	0.93342095	0.011746965	1.5565393	1.3414481	-0.18145688	1.5456746	1.3455478	0.18198619	1.4710443	1.3755299	-0.0047951682	1.5230126	1.0223531	-0.23053867	1.4697169	1.0345747	0.24729322	1.6800467	0.83320291	-0.25334539	1.6193285	0.84272146	0.26442015
475	1.896	1.6618619	0.033928219	-0.070796816	1.5500101	0.070577258	0.12425341	1.5380247	0.068989216	-0.094014414	1.4571954	0.16937886	0.12579481	1.5323896	0.080301572	-0.0062245993	1.5001477	0.17377294	0.046736195	1.4609967	0.042641736	-0.052779112	1.4097671	0.1792068	0.054959832	1.6330522	0.43295243	-0.093068907	1.7025042	0.45917505	0.17859304	1.5941198	0.43015847	0.022350434	1.7129679	0.44830241	0.044537346	1.5849073	0.82844751	-0.16072166	1.5548802	0.79819007	0.18350125	1.6499985	0.87412909	-0.10764744	1.6340154	0.86509471	0.13692821	1.4504821	0.93398526	0.011559999	1.5625827	1.3424934	-0.18132654	1.5509652	1.3459793	0.18202358	1.4765389	1.3761795	-0.0048895219	1.5310382	1.0231586	-0.23133803	1.4730033	1.0354794	0.24670505	1.6909591	0.83563503	-0.25273798	1.6204219	0.84236818	0.26552813
476	1.9	1.6618791	0.033921022	-0.070811363	1.5682732	0.06921197	0.12425565	1.5380469	0.069093154	-0.093995864	1.4726159	0.16530293	0.12554143	1.532449	0.080448177	-0.0062349584	1.5156592	0.17071877	0.046585825	1.4610428	0.042809978	-0.052684096	1.4243232	0.17367844	0.054843945	1.6337831	0.43279231	-0.093203533	1.711333	0.46141245	0.17823823	1.5951637	0.43028349	0.022256733	1.7211478	0.45102797	0.044667644	1.5895802	0.82868294	-0.16076949	1.5615604	0.79941283	0.18375603	1.655111	0.87475921	-0.10782486	1.6395764	0.86632608	0.13659716	1.4565505	0.93439969	0.011302413	1.5686117	1.3434663	-0.18119057	1.5562431	1.3463356	0.18207545	1.4820334	1.3767744	-0.0049870689	1.539091	1.0238898	-0.23216291	1.4764525	1.0362925	0.24615669	1.7019713	0.83802858	-0.25210002	1.6216496	0.84198274	0.26664211
477	1.904	1.6618973	0.033913126	-0.070826931	1.5867897	0.067954021	0.12428491	1.538071	0.06919739	-0.093977525	1.4882177	0.16114566	0.12534836	1.5325448	0.080592261	-0.0062522528	1.5317947	0.16753427	0.046311959	1.461098	0.042979773	-0.052591352	1.4403205	0.16750278	0.054479806	1.6344959	0.43263279	-0.093363887	1.7200415	0.46356112	0.1778256	1.596268	0.43041374	0.022163169	1.7291249	0.45363146	0.044634468	1.5945807	0.82887354	-0.16075008	1.5679487	0.80070362	0.18403512	1.6601913	0.87531434	-0.10800352	1.6451048	0.86747714	0.13625029	1.4630092	0.93464022	0.010994994	1.5746299	1.3443648	-0.18105176	1.5615015	1.3466153	0.18213807	1.4875322	1.3773013	-0.0050791512	1.5471626	1.0245587	-0.23299923	1.4801522	1.0370357	0.24567352	1.7128421	0.84041637	-0.25145355	1.623057	0.84156622	0.26778521
478	1.908	1.6619156	0.033905513	-0.070843087	1.6054827	0.066798373	0.12434458	1.5380977	0.069305417	-0.093958703	1.5040177	0.15692795	0.12522125	1.5326524	0.080733763	-0.0062610201	1.5488372	0.16414987	0.045674535	1.4611541	0.043161434	-0.052507141	1.4589863	0.16039884	0.053607613	1.6352043	0.43248052	-0.093542106	1.7286097	0.46560891	0.17736522	1.5973981	0.43054131	0.022077325	1.736956	0.45613118	0.044530561	1.5997851	0.82901476	-0.16068352	1.5741274	0.80202407	0.18432575	1.665313	0.87580389	-0.10816736	1.6506384	0.86854172	0.13589729	1.4694059	0.93477414	0.0107193	1.5806419	1.3451828	-0.18090957	1.5667427	1.3468223	0.18220572	1.4930333	1.3777547	-0.0051541569	1.555238	1.0251733	-0.2338328	1.4838668	1.0377498	0.24521325	1.72347	0.84281169	-0.25080414	1.6246638	0.84112325	0.26896817
479	1.912	1.6619361	0.033897896	-0.070859774	1.6242354	0.065694065	0.12445517	1.5381293	0.069421312	-0.093935885	1.5200238	0.15266987	0.12516168	1.5327514	0.080874468	-0.0062492298	1.5667711	0.16055098	0.044590686	1.4612004	0.043363039	-0.052424563	1.4792513	0.15285679	0.052494214	1.6359098	0.43234131	-0.093738702	1.7370193	0.46755073	0.17686611	1.5985203	0.43064858	0.022001978	1.7446534	0.45850469	0.04446431	1.6049265	0.82909485	-0.16062367	1.5801655	0.80332678	0.18460834	1.6706061	0.87623329	-0.1082938	1.6562064	0.86951283	0.13554559	1.475342	0.93492314	0.010539382	1.5866481	1.3459174	-0.1807638	1.5719729	1.3469594	0.18227508	1.498532	1.3781428	-0.0052125064	1.5633033	1.0257318	-0.23466273	1.4871942	1.03847	0.24469734	1.7339235	0.84520246	-0.25013918	1.6263991	0.84065842	0.27016869
